<svg id="visual" viewBox="0 0 900 600" width="900" height="600" xmlns="http://www.w3.org/2000/svg" xmlns:xlink="http://www.w3.org/1999/xlink" version="1.1"><rect x="0" y="0" width="900" height="600" fill="#EDEDFD"></rect><defs><linearGradient id="grad1_0" x1="33.3%" y1="0%" x2="100%" y2="100%"><stop offset="20%" stop-color="#ededfd" stop-opacity="1"></stop><stop offset="80%" stop-color="#ededfd" stop-opacity="1"></stop></linearGradient></defs><defs><linearGradient id="grad2_0" x1="0%" y1="0%" x2="66.7%" y2="100%"><stop offset="20%" stop-color="#ededfd" stop-opacity="1"></stop><stop offset="80%" stop-color="#ededfd" stop-opacity="1"></stop></linearGradient></defs><g transform="translate(900, 0)"><path d="M0 216.3C-40 211.9 -80 207.5 -108.2 187.3C-136.4 167.2 -152.8 131.3 -168.9 97.5C-184.9 63.7 -200.6 31.8 -216.3 0L0 0Z" fill="#1515BC"></path></g><g transform="translate(0, 600)"><path d="M0 -216.3C31.3 -199.7 62.6 -183.1 96.5 -167.1C130.4 -151.2 166.9 -135.9 187.3 -108.2C207.8 -80.4 212 -40.2 216.3 0L0 0Z" fill="#1515BC"></path></g></svg>