<svg width="13" height="13" viewBox="0 0 13 13" fill="none" xmlns="http://www.w3.org/2000/svg">
<path fill-rule="evenodd" clip-rule="evenodd" d="M7.12005 0.56829L12.6964 6.3986V6.39911C12.8369 6.54573 12.8764 6.7621 12.7967 6.94892C12.717 7.13573 12.5334 7.25694 12.3303 7.25692H11.5698C11.4298 7.25692 11.3163 7.37041 11.3163 7.51041V11.8198C11.3163 12.2398 10.9759 12.5802 10.5559 12.5802H8.27445C7.99445 12.5802 7.76747 12.3533 7.76747 12.0733V10.0453C7.76747 9.48533 7.3135 9.03136 6.7535 9.03136C6.1935 9.03136 5.73953 9.48533 5.73953 10.0453V12.0733C5.73953 12.3533 5.51255 12.5802 5.23255 12.5802H2.95112C2.53113 12.5802 2.19065 12.2398 2.19065 11.8198V7.51041C2.19065 7.37041 2.07716 7.25692 1.93716 7.25692H1.17668C0.973259 7.25734 0.789282 7.13613 0.709389 6.94905C0.629496 6.76197 0.66916 6.54525 0.810134 6.3986L6.38695 0.56829C6.5908 0.369286 6.9162 0.369286 7.12005 0.56829ZM10.9833 3.76002C10.9352 3.77935 10.8801 3.76739 10.8443 3.72983L8.85188 1.64663C8.80665 1.59944 8.7814 1.53659 8.78141 1.47122V1.17311C8.78141 1.03311 8.8949 0.919621 9.0349 0.919621H10.8093C10.9493 0.919621 11.0628 1.03311 11.0628 1.17311V3.64212C11.0629 3.69399 11.0314 3.7407 10.9833 3.76002Z" fill="black"/>
</svg>
